<svg 
 xmlns="http://www.w3.org/2000/svg"
 xmlns:xlink="http://www.w3.org/1999/xlink"
 width="10px" height="10px">
<path fill-rule="evenodd"  fill="rgb(255, 255, 255)"
 d="M8.212,5.887 L5.887,5.887 L5.887,8.212 C5.887,8.703 5.490,9.100 5.000,9.100 C4.510,9.100 4.112,8.703 4.112,8.212 L4.112,5.887 L1.787,5.887 C1.297,5.887 0.900,5.490 0.900,5.000 C0.900,4.510 1.297,4.112 1.787,4.112 L4.112,4.112 L4.112,1.787 C4.112,1.297 4.510,0.900 5.000,0.900 C5.490,0.900 5.887,1.297 5.887,1.787 L5.887,4.112 L8.212,4.112 C8.702,4.112 9.100,4.510 9.100,5.000 C9.100,5.490 8.702,5.887 8.212,5.887 Z"/>
</svg>