<svg 
 xmlns="http://www.w3.org/2000/svg"
 xmlns:xlink="http://www.w3.org/1999/xlink"
 width="19px" height="22px">
<path fill-rule="evenodd"  opacity="0.4" fill="rgb(22, 22, 22)"
 d="M9.500,0.127 C4.495,0.127 0.437,4.018 0.437,8.819 C0.437,14.686 8.424,21.314 8.763,21.596 C9.187,21.944 9.812,21.944 10.236,21.596 C10.633,21.314 18.562,14.686 18.562,8.819 C18.562,4.018 14.505,0.127 9.500,0.127 ZM9.500,19.304 C7.087,17.131 2.703,12.448 2.703,8.819 C2.703,5.218 5.746,2.300 9.500,2.300 C13.254,2.300 16.297,5.218 16.297,8.819 C16.297,12.448 11.913,17.142 9.500,19.304 ZM9.500,4.473 C6.997,4.473 4.969,6.419 4.969,8.819 C4.969,11.219 6.997,13.165 9.500,13.165 C12.002,13.165 14.031,11.219 14.031,8.819 C14.031,6.419 12.002,4.473 9.500,4.473 ZM9.500,10.992 C8.248,10.992 7.234,10.019 7.234,8.819 C7.234,7.619 8.248,6.646 9.500,6.646 C10.751,6.646 11.765,7.619 11.765,8.819 C11.765,10.019 10.751,10.992 9.500,10.992 Z"/>
</svg>