<svg 
 xmlns="http://www.w3.org/2000/svg"
 xmlns:xlink="http://www.w3.org/1999/xlink"
 width="23px" height="23px">
<path fill-rule="evenodd"  opacity="0.439" fill="rgb(22, 22, 22)"
 d="M21.729,11.875 C21.124,11.875 20.634,11.385 20.634,10.780 C20.634,6.547 17.202,3.116 12.970,3.116 C12.365,3.116 11.875,2.625 11.875,2.021 C11.875,1.416 12.365,0.926 12.970,0.926 C18.412,0.926 22.824,5.338 22.824,10.780 C22.824,11.385 22.333,11.875 21.729,11.875 ZM16.254,10.780 C16.254,8.966 14.784,7.495 12.970,7.495 C12.365,7.495 11.875,7.005 11.875,6.400 C11.875,5.796 12.365,5.305 12.970,5.305 C15.993,5.305 18.444,7.757 18.444,10.780 C18.444,11.385 17.954,11.875 17.349,11.875 C16.744,11.875 16.254,11.385 16.254,10.780 ZM13.309,15.740 C14.021,14.382 14.032,14.371 14.185,14.229 C14.451,13.969 14.830,13.862 15.192,13.944 L21.762,15.444 C22.130,15.530 22.428,15.799 22.550,16.156 C22.642,16.416 22.712,16.683 22.758,16.955 C22.802,17.231 22.824,17.509 22.824,17.788 C22.824,20.569 20.569,22.824 17.787,22.824 C8.480,22.812 0.938,15.270 0.926,5.962 C0.926,3.181 3.181,0.926 5.962,0.926 C6.246,0.934 6.529,0.971 6.805,1.035 C7.074,1.075 7.338,1.141 7.594,1.232 C7.951,1.355 8.220,1.653 8.305,2.021 L9.805,8.514 C9.888,8.876 9.780,9.255 9.521,9.521 C9.378,9.685 9.367,9.685 7.977,10.386 C9.055,12.752 10.948,14.652 13.309,15.740 ZM5.612,10.244 C5.218,9.389 5.962,8.995 6.904,8.503 L7.495,8.196 L6.324,3.116 L5.962,3.116 C4.393,3.122 3.122,4.393 3.116,5.962 C3.122,14.063 9.687,20.628 17.787,20.634 C19.357,20.628 20.628,19.357 20.634,17.788 L20.634,17.426 L15.565,16.266 L15.247,16.868 C14.754,17.820 14.393,18.510 13.473,18.138 C9.799,16.823 6.912,13.923 5.612,10.244 Z"/>
</svg>