<svg 
 xmlns="http://www.w3.org/2000/svg"
 xmlns:xlink="http://www.w3.org/1999/xlink"
 width="22px" height="22px">
<path fill-rule="evenodd"  opacity="0.4" fill="rgb(22, 22, 22)"
 d="M11.157,21.831 C5.210,21.831 0.389,17.010 0.389,11.062 C0.389,5.115 5.210,0.294 11.157,0.294 C17.104,0.294 21.926,5.115 21.926,11.062 C21.926,17.010 17.104,21.831 11.157,21.831 ZM11.157,2.448 C6.399,2.448 2.542,6.305 2.542,11.062 C2.542,15.820 6.399,19.677 11.157,19.677 C15.915,19.677 19.772,15.820 19.772,11.062 C19.772,6.305 15.915,2.448 11.157,2.448 ZM12.234,13.216 L7.927,13.216 C7.332,13.216 6.850,12.734 6.850,12.139 C6.850,11.545 7.332,11.062 7.927,11.062 L11.157,11.062 L11.157,7.832 C11.157,7.237 11.639,6.755 12.234,6.755 C12.829,6.755 13.311,7.237 13.311,7.832 L13.311,12.139 C13.311,12.734 12.829,13.216 12.234,13.216 Z"/>
</svg>