<svg 
 xmlns="http://www.w3.org/2000/svg"
 xmlns:xlink="http://www.w3.org/1999/xlink"
 width="23px" height="23px">
<path fill-rule="evenodd"  fill="rgb(255, 255, 255)"
 d="M7.460,17.751 C6.244,17.751 5.260,18.746 5.260,19.962 C5.260,21.177 6.244,22.173 7.460,22.173 C8.676,22.173 9.671,21.177 9.671,19.962 C9.671,18.746 8.676,17.751 7.460,17.751 ZM0.826,0.060 L0.826,2.271 L3.038,2.271 L7.018,10.663 L5.525,13.372 C5.348,13.682 5.249,14.046 5.249,14.433 C5.249,15.650 6.244,16.645 7.460,16.645 L20.728,16.645 L20.728,14.433 L7.924,14.433 C7.770,14.433 7.648,14.312 7.648,14.157 L7.681,14.024 L8.676,12.222 L16.913,12.222 C17.742,12.222 18.472,11.769 18.848,11.083 L22.806,3.908 C22.895,3.753 22.939,3.565 22.939,3.377 C22.939,2.769 22.441,2.271 21.833,2.271 L5.481,2.271 L4.442,0.060 L0.826,0.060 ZM18.516,17.751 C17.300,17.751 16.316,18.746 16.316,19.962 C16.316,21.177 17.300,22.173 18.516,22.173 C19.732,22.173 20.728,21.177 20.728,19.962 C20.728,18.746 19.732,17.751 18.516,17.751 Z"/>
</svg>