<svg 
 xmlns="http://www.w3.org/2000/svg"
 xmlns:xlink="http://www.w3.org/1999/xlink"
 width="12px" height="12px">
<path fill-rule="evenodd"  fill="rgb(0, 0, 0)"
 d="M10.212,6.887 L6.887,6.887 L6.887,10.212 C6.887,10.703 6.490,11.100 6.000,11.100 C5.510,11.100 5.112,10.703 5.112,10.212 L5.112,6.887 L1.787,6.887 C1.297,6.887 0.900,6.490 0.900,6.000 C0.900,5.510 1.297,5.112 1.787,5.112 L5.112,5.112 L5.112,1.787 C5.112,1.297 5.510,0.900 6.000,0.900 C6.490,0.900 6.887,1.297 6.887,1.787 L6.887,5.112 L10.212,5.112 C10.703,5.112 11.100,5.510 11.100,6.000 C11.100,6.490 10.703,6.887 10.212,6.887 Z"/>
</svg>