<svg 
 xmlns="http://www.w3.org/2000/svg"
 xmlns:xlink="http://www.w3.org/1999/xlink"
 width="24px" height="24px">
<path fill-rule="evenodd"  fill="rgb(158, 158, 158)"
 d="M7.550,18.675 C6.326,18.675 5.336,19.676 5.336,20.900 C5.336,22.123 6.326,23.125 7.550,23.125 C8.774,23.125 9.775,22.123 9.775,20.900 C9.775,19.676 8.774,18.675 7.550,18.675 ZM0.875,0.875 L0.875,3.100 L3.100,3.100 L7.105,11.544 L5.603,14.269 C5.425,14.581 5.325,14.948 5.325,15.337 C5.325,16.561 6.326,17.562 7.550,17.562 L20.900,17.562 L20.900,15.337 L8.017,15.337 C7.861,15.337 7.739,15.215 7.739,15.059 L7.772,14.926 L8.774,13.112 L17.062,13.112 C17.896,13.112 18.630,12.656 19.009,11.966 L22.991,4.746 C23.080,4.591 23.125,4.401 23.125,4.212 C23.125,3.600 22.624,3.100 22.012,3.100 L5.559,3.100 L4.513,0.875 L0.875,0.875 ZM18.675,18.675 C17.451,18.675 16.461,19.676 16.461,20.900 C16.461,22.123 17.451,23.125 18.675,23.125 C19.899,23.125 20.900,22.123 20.900,20.900 C20.900,19.676 19.899,18.675 18.675,18.675 Z"/>
</svg>