<svg 
 xmlns="http://www.w3.org/2000/svg"
 xmlns:xlink="http://www.w3.org/1999/xlink"
 width="10px" height="10px">
<path fill-rule="evenodd"  fill="rgb(163, 163, 163)"
 d="M8.949,2.464 L6.397,5.016 L8.743,7.362 C9.116,7.735 9.116,8.340 8.743,8.713 C8.370,9.086 7.765,9.086 7.392,8.713 L5.046,6.367 L2.464,8.949 C2.074,9.340 1.441,9.340 1.050,8.949 C0.659,8.559 0.659,7.926 1.050,7.535 L3.632,4.953 L1.287,2.608 C0.914,2.235 0.914,1.630 1.287,1.257 C1.660,0.884 2.264,0.884 2.638,1.257 L4.983,3.602 L7.535,1.050 C7.926,0.659 8.559,0.659 8.949,1.050 C9.340,1.441 9.340,2.074 8.949,2.464 Z"/>
</svg>