<svg 
 xmlns="http://www.w3.org/2000/svg"
 xmlns:xlink="http://www.w3.org/1999/xlink"
 width="20px" height="20px">
<path fill-rule="evenodd"  fill="rgb(255, 255, 255)"
 d="M11.394,9.874 L18.677,17.157 C19.094,17.574 19.094,18.249 18.677,18.666 C18.260,19.083 17.584,19.083 17.167,18.666 L9.904,11.403 L2.735,18.763 C2.323,19.183 1.654,19.183 1.241,18.763 C0.828,18.342 0.828,17.659 1.241,17.238 L8.394,9.893 L0.590,2.088 L1.161,1.517 C1.679,0.999 2.519,0.999 3.037,1.517 L9.883,8.363 L16.856,1.203 C17.268,0.782 17.937,0.782 18.351,1.203 L19.097,1.965 L11.394,9.874 Z"/>
</svg>