<svg 
 xmlns="http://www.w3.org/2000/svg"
 xmlns:xlink="http://www.w3.org/1999/xlink"
 width="12px" height="12px">
<path fill-rule="evenodd"  fill="rgb(210, 210, 210)"
 d="M10.949,2.464 L7.397,6.016 L10.742,9.362 C11.115,9.735 11.115,10.340 10.742,10.713 C10.369,11.086 9.765,11.086 9.392,10.713 L6.046,7.367 L2.464,10.949 C2.073,11.340 1.440,11.340 1.050,10.949 C0.659,10.559 0.659,9.926 1.050,9.535 L4.632,5.953 L1.286,2.607 C0.913,2.234 0.913,1.629 1.286,1.257 C1.659,0.884 2.264,0.884 2.637,1.257 L5.983,4.602 L9.535,1.050 C9.925,0.659 10.558,0.659 10.949,1.050 C11.340,1.440 11.340,2.074 10.949,2.464 Z"/>
</svg>