<svg 
 xmlns="http://www.w3.org/2000/svg"
 xmlns:xlink="http://www.w3.org/1999/xlink"
 width="48px" height="48px">
<path fill-rule="evenodd"  fill="rgb(204, 34, 41)"
 d="M24.000,48.000 C10.745,48.000 -0.000,37.255 -0.000,24.000 C-0.000,10.745 10.745,-0.000 24.000,-0.000 C37.255,-0.000 48.000,10.745 48.000,24.000 C48.000,37.255 37.255,48.000 24.000,48.000 ZM24.000,4.800 C13.396,4.800 4.800,13.396 4.800,24.000 C4.800,34.604 13.396,43.200 24.000,43.200 C34.604,43.200 43.200,34.604 43.200,24.000 C43.200,13.396 34.604,4.800 24.000,4.800 ZM26.400,28.800 L16.800,28.800 C15.474,28.800 14.400,27.725 14.400,26.400 C14.400,25.074 15.474,24.000 16.800,24.000 L24.000,24.000 L24.000,16.800 C24.000,15.474 25.074,14.400 26.400,14.400 C27.725,14.400 28.800,15.474 28.800,16.800 L28.800,26.400 C28.800,27.725 27.725,28.800 26.400,28.800 Z"/>
</svg>