<svg 
 xmlns="http://www.w3.org/2000/svg"
 xmlns:xlink="http://www.w3.org/1999/xlink"
 width="62px" height="44px">
<path fill-rule="evenodd"  fill="rgb(204, 34, 41)"
 d="M54.000,44.000 L8.000,44.000 C3.582,44.000 -0.000,40.418 -0.000,36.000 L-0.000,8.000 C-0.000,3.582 3.582,-0.000 8.000,-0.000 L54.000,-0.000 C58.418,-0.000 62.000,3.582 62.000,8.000 L62.000,36.000 C62.000,40.418 58.418,44.000 54.000,44.000 ZM4.000,34.000 C4.000,37.314 6.686,40.000 10.000,40.000 L52.000,40.000 C55.314,40.000 58.000,37.314 58.000,34.000 L58.000,16.000 L4.000,16.000 L4.000,34.000 ZM52.000,4.000 L10.000,4.000 C6.686,4.000 4.000,6.686 4.000,10.000 L4.000,12.000 L58.000,12.000 L58.000,10.000 C58.000,6.686 55.314,4.000 52.000,4.000 ZM24.000,30.000 L15.000,30.000 C13.343,30.000 12.000,28.657 12.000,27.000 C12.000,25.343 13.343,24.000 15.000,24.000 L24.000,24.000 C25.657,24.000 27.000,25.343 27.000,27.000 C27.000,28.657 25.657,30.000 24.000,30.000 Z"/>
</svg>