<svg 
 xmlns="http://www.w3.org/2000/svg"
 xmlns:xlink="http://www.w3.org/1999/xlink"
 width="46px" height="50px">
<path fill-rule="evenodd"  fill="rgb(204, 34, 41)"
 d="M21.387,5.646 C22.279,5.646 23.000,6.369 23.000,7.259 C23.000,8.149 22.279,8.872 21.387,8.872 L11.710,8.872 C10.818,8.872 10.097,8.149 10.097,7.259 C10.097,6.369 10.818,5.646 11.710,5.646 L21.387,5.646 ZM14.936,44.354 C14.044,44.354 13.323,43.631 13.323,42.741 C13.323,41.851 14.044,41.128 14.936,41.128 L18.162,41.128 C19.053,41.128 19.774,41.851 19.774,42.741 C19.774,43.631 19.053,44.354 18.162,44.354 L14.936,44.354 ZM40.741,37.903 L11.710,37.903 C9.042,37.903 6.872,35.732 6.872,33.064 L6.872,16.936 C6.872,14.268 9.042,12.097 11.710,12.097 L29.451,12.097 L29.451,5.646 C29.451,4.757 28.729,4.033 27.838,4.033 L5.259,4.033 C4.369,4.033 3.646,4.757 3.646,5.646 L3.646,44.354 C3.646,45.242 4.369,45.967 5.259,45.967 L27.838,45.967 C28.729,45.967 29.451,45.242 29.451,44.354 L29.451,42.741 C29.451,41.851 30.172,41.128 31.064,41.128 C31.956,41.128 32.677,41.851 32.677,42.741 L32.677,44.354 C32.677,47.022 30.506,49.192 27.838,49.192 L5.259,49.192 C2.591,49.192 0.420,47.022 0.420,44.354 L0.420,5.646 C0.420,2.978 2.591,0.808 5.259,0.808 L27.838,0.808 C30.506,0.808 32.677,2.978 32.677,5.646 L32.677,12.097 L40.741,12.097 C43.409,12.097 45.579,14.268 45.579,16.936 L45.579,33.064 C45.579,35.732 43.409,37.903 40.741,37.903 ZM42.354,16.936 C42.354,16.047 41.631,15.323 40.741,15.323 L11.710,15.323 C10.820,15.323 10.097,16.047 10.097,16.936 L10.097,18.549 L42.354,18.549 L42.354,16.936 ZM42.354,21.774 L10.097,21.774 L10.097,23.387 L42.354,23.387 L42.354,21.774 ZM42.354,26.613 L10.097,26.613 L10.097,33.064 C10.097,33.953 10.820,34.677 11.710,34.677 L40.741,34.677 C41.631,34.677 42.354,33.953 42.354,33.064 L42.354,26.613 Z"/>
</svg>