<svg 
 xmlns="http://www.w3.org/2000/svg"
 xmlns:xlink="http://www.w3.org/1999/xlink"
 width="61px" height="46px">
<path fill-rule="evenodd"  fill="rgb(204, 34, 41)"
 d="M56.243,35.894 C56.350,36.399 56.407,36.922 56.407,37.458 C56.407,41.702 52.883,45.142 48.537,45.142 C44.190,45.142 40.666,41.702 40.666,37.458 C40.666,37.002 40.714,36.558 40.792,36.124 L39.005,36.124 L38.971,36.124 L24.228,36.124 C24.305,36.558 24.354,37.002 24.354,37.458 C24.354,41.702 20.830,45.142 16.483,45.142 C12.136,45.142 8.613,41.702 8.613,37.458 C8.613,33.214 12.136,29.774 16.483,29.774 C18.603,29.774 20.523,30.596 21.938,31.927 C22.022,31.917 22.105,31.902 22.192,31.902 L36.809,31.902 L36.809,15.554 C36.809,15.439 36.825,15.329 36.843,15.220 L36.843,9.656 C36.825,9.546 36.809,9.436 36.809,9.322 C36.809,9.207 36.825,9.097 36.843,8.988 L36.843,5.995 C36.853,5.426 36.388,4.957 35.806,4.948 C35.794,4.948 35.782,4.948 35.771,4.948 L10.290,4.948 C9.096,4.948 8.128,4.002 8.128,2.837 C8.128,1.671 9.096,0.725 10.290,0.725 L35.771,0.725 C38.751,0.725 41.168,3.085 41.168,5.995 L41.168,7.211 L49.194,7.211 C51.147,7.218 52.939,8.268 53.864,9.947 C53.918,10.045 53.964,10.146 54.003,10.251 L57.115,18.864 C58.966,19.729 60.178,21.572 60.161,23.626 L60.161,30.872 C60.145,33.267 58.489,35.260 56.243,35.894 ZM16.483,33.996 C14.525,33.996 12.937,35.546 12.937,37.458 C12.937,39.370 14.525,40.920 16.483,40.920 C18.442,40.920 20.029,39.370 20.029,37.458 C20.029,35.546 18.442,33.996 16.483,33.996 ZM48.364,40.918 C50.321,40.965 51.947,39.453 51.995,37.541 C51.996,37.514 51.996,37.486 51.996,37.458 C51.997,35.579 50.461,34.042 48.537,33.996 C46.579,33.949 44.953,35.461 44.905,37.373 C44.857,39.284 46.406,40.872 48.364,40.918 ZM50.007,11.855 C49.818,11.598 49.518,11.442 49.194,11.433 L41.168,11.433 L41.168,17.276 C41.168,17.855 41.648,18.323 42.240,18.324 C42.246,18.324 42.251,18.324 42.257,18.323 L52.390,18.323 L50.007,11.855 ZM55.836,23.609 C55.835,23.120 55.492,22.696 55.006,22.579 L42.257,22.579 C41.871,22.579 41.496,22.537 41.133,22.462 L41.133,31.902 L42.846,31.902 C42.927,31.902 43.004,31.917 43.083,31.925 C44.498,30.595 46.418,29.774 48.537,29.774 C50.656,29.774 52.575,30.595 53.990,31.925 C54.069,31.917 54.146,31.902 54.228,31.902 L54.747,31.902 C55.339,31.911 55.827,31.450 55.836,30.872 C55.836,30.866 55.836,30.860 55.836,30.855 L55.836,23.609 ZM19.476,20.823 C20.670,20.823 21.638,21.768 21.638,22.934 C21.638,24.100 20.670,25.045 19.476,25.045 L12.072,25.045 C10.878,25.045 9.910,24.100 9.910,22.934 C9.910,21.768 10.878,20.823 12.072,20.823 L19.476,20.823 ZM18.974,13.510 C18.974,14.676 18.006,15.621 16.812,15.621 L2.645,15.621 C1.450,15.621 0.482,14.676 0.482,13.510 C0.482,12.344 1.450,11.399 2.645,11.399 L16.812,11.399 C18.006,11.399 18.974,12.344 18.974,13.510 Z"/>
</svg>