<svg 
 xmlns="http://www.w3.org/2000/svg"
 xmlns:xlink="http://www.w3.org/1999/xlink"
 width="48px" height="46px">
<path fill-rule="evenodd"  fill="rgb(204, 34, 41)"
 d="M43.000,46.000 L5.000,46.000 C2.239,46.000 -0.000,43.761 -0.000,41.000 L-0.000,14.000 C-0.000,11.238 2.239,9.000 5.000,9.000 L13.050,9.000 C13.552,3.947 17.815,-0.000 23.000,-0.000 L25.000,-0.000 C30.185,-0.000 34.448,3.947 34.949,9.000 L43.000,9.000 C45.761,9.000 48.000,11.238 48.000,14.000 L48.000,41.000 C48.000,43.761 45.761,46.000 43.000,46.000 ZM24.488,3.731 L23.512,3.731 C20.326,3.731 17.669,5.994 17.059,9.000 L30.941,9.000 C30.331,5.994 27.674,3.731 24.488,3.731 ZM44.000,16.000 C44.000,14.343 42.657,13.000 41.000,13.000 L35.000,13.000 L35.000,16.000 L35.000,19.000 C35.000,20.105 34.104,21.000 33.000,21.000 C31.895,21.000 31.000,20.105 31.000,19.000 L31.000,13.000 L17.000,13.000 L17.000,19.000 C17.000,20.105 16.104,21.000 15.000,21.000 C13.895,21.000 13.000,20.105 13.000,19.000 L13.000,16.000 L13.000,13.000 L7.000,13.000 C5.343,13.000 4.000,14.343 4.000,16.000 L4.000,39.000 C4.000,40.657 5.343,42.000 7.000,42.000 L41.000,42.000 C42.657,42.000 44.000,40.657 44.000,39.000 L44.000,16.000 Z"/>
</svg>