<svg 
 xmlns="http://www.w3.org/2000/svg"
 xmlns:xlink="http://www.w3.org/1999/xlink"
 width="82px" height="42px">
<path fill-rule="evenodd"  fill="rgb(204, 34, 41)"
 d="M81.168,19.956 C80.897,20.596 80.272,21.000 79.595,21.000 L62.207,21.000 L61.079,24.369 L77.903,24.369 L77.903,27.737 L59.951,27.737 L58.824,31.106 L74.521,31.106 L74.521,34.475 L57.696,34.475 L56.568,37.844 L71.138,37.844 L71.138,41.212 L54.223,41.212 L40.691,41.212 L18.702,41.212 C18.245,41.212 17.822,41.027 17.501,40.724 L0.586,23.880 L2.971,21.505 L19.396,37.844 L39.468,37.844 L40.595,34.475 L22.085,34.475 C21.628,34.475 21.205,34.290 20.884,33.986 L3.969,17.143 L6.354,14.768 L22.778,31.106 L41.723,31.106 L42.851,27.737 L25.468,27.737 C25.011,27.737 24.588,27.552 24.267,27.249 L7.352,10.405 L9.737,8.030 L26.161,24.369 L43.978,24.369 L45.106,21.000 L28.851,21.000 C28.394,21.000 27.971,20.815 27.650,20.511 L10.735,3.668 C10.262,3.179 10.109,2.455 10.380,1.832 C10.634,1.192 11.260,0.787 11.936,0.787 L30.542,0.787 L44.074,0.787 L62.680,0.787 C63.137,0.787 63.560,0.973 63.881,1.276 L80.796,18.120 C81.286,18.608 81.422,19.332 81.168,19.956 ZM53.005,37.844 L58.638,21.000 L48.675,21.000 L43.042,37.844 L53.005,37.844 ZM29.832,4.156 L16.013,4.156 L29.544,17.631 L43.364,17.631 L29.832,4.156 ZM43.364,4.156 L34.619,4.156 L48.151,17.631 L56.895,17.631 L43.364,4.156 ZM61.970,4.156 L48.167,4.156 L61.699,17.631 L75.502,17.631 L61.970,4.156 Z"/>
</svg>