<svg 
 xmlns="http://www.w3.org/2000/svg"
 xmlns:xlink="http://www.w3.org/1999/xlink"
 width="38px" height="49px">
<path fill-rule="evenodd"  fill="rgb(204, 34, 41)"
 d="M19.000,21.814 C21.616,21.814 23.737,19.661 23.737,17.003 C23.737,14.347 21.616,12.193 19.000,12.193 C16.384,12.193 14.263,14.347 14.263,17.003 C14.263,19.661 16.384,21.814 19.000,21.814 ZM17.318,38.435 C18.240,39.378 19.739,39.385 20.668,38.449 C20.672,38.445 20.677,38.440 20.681,38.435 L30.368,28.573 C36.650,22.197 36.652,11.856 30.374,5.476 C24.095,-0.904 13.914,-0.907 7.632,5.470 C1.350,11.846 1.348,22.187 7.626,28.567 C7.628,28.569 7.630,28.571 7.632,28.573 L17.318,38.435 ZM7.703,15.897 C8.031,12.424 9.884,9.286 12.748,7.358 C16.543,4.827 21.457,4.827 25.252,7.358 C30.501,10.905 31.926,18.101 28.434,23.433 C28.023,24.061 27.552,24.646 27.029,25.182 L19.000,33.336 L10.971,25.182 C8.561,22.744 7.361,19.334 7.703,15.897 ZM35.578,43.943 L2.422,43.943 C1.114,43.943 0.053,45.020 0.053,46.349 C0.053,47.677 1.114,48.754 2.422,48.754 L35.578,48.754 C36.886,48.754 37.947,47.677 37.947,46.349 C37.947,45.020 36.886,43.943 35.578,43.943 Z"/>
</svg>