<svg 
 xmlns="http://www.w3.org/2000/svg"
 xmlns:xlink="http://www.w3.org/1999/xlink"
 width="53px" height="48px">
<path fill-rule="evenodd"  fill="rgb(204, 34, 41)"
 d="M47.976,37.857 L47.976,39.853 C48.120,44.045 44.779,47.565 40.497,47.732 L8.012,47.732 C3.718,47.581 0.360,44.056 0.503,39.853 L0.503,6.687 C0.503,6.521 0.533,6.364 0.575,6.211 C0.824,2.786 3.743,0.104 7.291,0.160 L34.324,0.160 C38.263,0.078 41.524,3.138 41.607,6.994 C41.608,7.009 41.608,7.025 41.608,7.040 L41.608,9.371 C45.354,10.034 48.137,13.293 48.006,17.125 L48.006,20.610 C50.488,20.904 52.414,22.953 52.406,25.460 L52.406,33.090 C52.361,35.575 50.431,37.575 47.976,37.857 ZM37.854,7.040 C37.780,5.224 36.225,3.807 34.369,3.865 L7.337,3.865 C5.741,3.807 4.398,5.023 4.333,6.584 C4.398,8.146 5.741,9.362 7.337,9.304 L7.564,9.304 C7.708,9.269 7.857,9.245 8.012,9.245 L37.854,9.245 L37.854,7.040 ZM44.221,17.140 C44.368,14.973 42.709,13.093 40.497,12.920 L24.305,12.920 C24.161,12.955 24.012,12.979 23.857,12.979 L7.291,12.979 C6.197,12.996 5.176,12.729 4.258,12.285 L4.258,39.853 C4.111,42.017 5.773,43.893 7.982,44.057 L40.497,44.057 C42.706,43.893 44.368,42.017 44.221,39.853 L44.221,37.912 L36.908,37.912 C32.674,37.994 29.173,34.705 29.083,30.562 L29.083,27.901 C29.173,23.757 32.674,20.468 36.908,20.550 L44.221,20.550 L44.221,17.140 ZM48.562,25.460 C48.553,25.167 48.429,24.888 48.216,24.681 C47.989,24.448 47.674,24.316 47.345,24.314 L36.908,24.240 C34.753,24.157 32.935,25.793 32.838,27.901 L32.838,30.635 C32.935,32.743 34.753,34.379 36.908,34.296 L45.950,34.296 C46.000,34.292 46.048,34.281 46.099,34.281 C46.150,34.281 46.198,34.292 46.247,34.296 L47.315,34.296 C47.998,34.296 48.553,33.758 48.562,33.090 L48.562,25.460 ZM37.944,31.106 C36.907,31.106 36.067,30.283 36.067,29.268 C36.067,28.253 36.907,27.430 37.944,27.430 C38.981,27.430 39.821,28.253 39.821,29.268 C39.821,30.283 38.981,31.106 37.944,31.106 Z"/>
</svg>