<svg 
 xmlns="http://www.w3.org/2000/svg"
 xmlns:xlink="http://www.w3.org/1999/xlink"
 width="65px" height="28px">
<path fill-rule="evenodd"  fill="rgb(204, 34, 41)"
 d="M59.459,22.672 C58.246,26.132 56.857,27.278 53.908,27.278 L53.910,27.283 C53.681,27.283 52.929,27.254 52.748,27.211 L52.748,24.836 C52.940,24.857 53.398,24.887 53.638,24.887 C54.977,24.887 55.726,24.306 56.187,22.826 L56.467,21.954 L51.348,7.557 L54.508,7.557 L58.067,19.233 L58.129,19.233 L61.689,7.557 L64.768,7.557 L59.459,22.672 ZM47.359,19.529 L47.300,19.529 C46.503,21.080 44.743,22.053 42.841,22.053 C40.031,22.050 38.074,20.347 38.063,17.791 C38.063,15.256 39.964,13.795 43.473,13.582 L47.252,13.347 L47.252,12.251 C47.252,10.639 46.212,9.767 44.361,9.767 C42.839,9.767 41.729,10.569 41.500,11.788 L38.770,11.788 C38.863,9.229 41.239,7.365 44.449,7.365 C47.908,7.365 50.158,9.213 50.158,12.062 L50.158,21.904 L47.359,21.904 L47.359,19.529 ZM47.262,15.432 L43.903,15.645 C42.012,15.757 41.023,16.474 41.023,17.724 C41.023,18.921 42.052,19.713 43.663,19.713 C45.710,19.713 47.262,18.396 47.262,16.548 L47.262,15.432 ZM30.810,15.144 L26.621,15.144 L26.621,21.901 L23.591,21.901 L23.591,2.127 L30.909,2.127 C34.682,2.127 37.319,4.766 37.319,8.621 C37.319,12.475 34.639,15.144 30.810,15.144 ZM30.111,4.715 L26.621,4.715 L26.621,12.569 L30.101,12.569 C32.743,12.569 34.242,11.126 34.242,8.631 C34.242,6.134 32.740,4.715 30.111,4.715 ZM16.522,19.417 C15.634,20.739 14.725,22.026 13.275,22.056 C11.875,22.074 11.405,21.203 9.795,21.203 C8.195,21.203 7.672,22.024 6.344,22.074 C4.944,22.125 3.886,20.672 2.995,19.355 C1.176,16.687 -0.213,11.846 1.667,8.570 C2.576,6.939 4.238,5.912 6.024,5.881 C7.405,5.851 8.664,6.806 9.504,6.806 C10.325,6.806 11.813,5.699 13.555,5.803 L13.549,5.800 C14.229,5.851 16.178,6.054 17.429,7.941 C17.333,8.021 15.112,9.311 15.141,12.030 C15.173,15.277 17.944,16.354 17.973,16.383 C17.952,16.463 17.530,17.916 16.522,19.417 ZM12.467,4.057 C11.715,4.961 10.515,5.670 9.315,5.569 C9.163,4.350 9.752,3.049 10.445,2.261 C11.195,1.336 12.504,0.677 13.573,0.626 C13.693,1.885 13.205,3.132 12.467,4.055 L12.467,4.057 Z"/>
</svg>