<svg 
 xmlns="http://www.w3.org/2000/svg"
 xmlns:xlink="http://www.w3.org/1999/xlink"
 width="73px" height="28px">
<path fill-rule="evenodd"  fill="rgb(204, 34, 41)"
 d="M63.194,27.298 L60.302,27.298 L63.776,19.978 L57.619,6.388 L60.666,6.388 L65.118,16.811 L65.177,16.811 L69.503,6.388 L72.557,6.388 L63.194,27.298 ZM57.619,20.865 L55.196,20.865 L55.196,18.917 L55.085,18.917 C54.037,20.522 52.641,21.323 50.903,21.323 C49.415,21.323 48.172,20.865 47.168,19.948 C46.245,19.127 45.668,17.938 45.668,16.611 C45.668,16.578 45.668,16.545 45.668,16.512 C45.668,15.063 46.197,13.913 47.252,13.053 C48.306,12.195 49.717,11.768 51.479,11.765 C52.982,11.765 54.222,12.052 55.193,12.623 L55.193,12.022 C55.193,12.013 55.193,12.001 55.193,11.989 C55.193,11.075 54.789,10.253 54.150,9.695 L54.147,9.692 C53.520,9.097 52.668,8.730 51.733,8.730 C51.724,8.730 51.715,8.730 51.706,8.730 C50.290,8.730 49.170,9.351 48.348,10.591 L46.116,9.133 C47.341,7.302 49.158,6.384 51.563,6.384 C53.433,6.384 54.912,6.904 55.996,7.944 C57.078,8.984 57.619,10.412 57.619,12.222 L57.619,20.865 ZM55.202,14.857 C54.410,14.200 53.311,13.874 51.897,13.874 C50.867,13.874 50.009,14.134 49.322,14.651 C48.629,15.171 48.282,15.807 48.282,16.572 C48.282,16.578 48.282,16.587 48.282,16.593 C48.282,17.283 48.611,17.896 49.119,18.287 L49.125,18.290 C49.684,18.747 50.380,18.989 51.094,18.977 C52.160,18.974 53.185,18.529 53.941,17.746 C54.718,17.029 55.202,16.005 55.202,14.869 C55.202,14.866 55.202,14.860 55.202,14.857 ZM43.559,11.069 C42.200,12.258 40.518,12.850 38.519,12.850 L33.667,12.850 L33.667,12.856 L33.667,21.323 L30.730,21.323 L30.730,0.412 L38.519,0.412 C38.573,0.412 38.638,0.409 38.704,0.409 C40.565,0.409 42.268,1.096 43.568,2.229 L43.559,2.220 C44.927,3.346 45.695,4.953 45.668,6.635 C45.668,6.656 45.668,6.680 45.668,6.704 C45.668,8.470 44.850,10.041 43.571,11.060 L43.559,11.069 ZM41.492,4.096 C40.772,3.409 39.795,2.985 38.719,2.985 C38.671,2.985 38.624,2.985 38.576,2.988 L33.661,2.988 L33.661,10.289 L38.585,10.289 C39.675,10.319 40.730,9.925 41.492,9.208 C42.244,8.536 42.672,7.615 42.672,6.650 C42.672,5.688 42.244,4.768 41.492,4.096 ZM13.047,24.310 C13.032,24.310 13.014,24.310 12.996,24.310 C8.305,24.310 4.233,21.669 2.187,17.791 L2.154,17.725 C1.335,16.166 0.854,14.320 0.854,12.363 C0.854,10.427 1.326,8.604 2.157,6.994 C4.236,3.053 8.308,0.412 12.996,0.412 C13.014,0.412 13.026,0.412 13.044,0.412 L13.047,0.412 C13.091,0.412 13.145,0.412 13.196,0.412 C16.285,0.412 19.093,1.592 21.203,3.525 L17.725,6.937 C16.533,5.826 14.929,5.145 13.166,5.145 C13.127,5.145 13.085,5.145 13.047,5.145 C9.886,5.166 7.203,7.197 6.217,10.023 L6.202,10.074 C5.960,10.755 5.819,11.544 5.819,12.363 C5.819,13.169 5.960,13.946 6.208,14.666 C7.212,17.534 9.892,19.560 13.044,19.581 L13.047,19.581 C14.693,19.581 16.103,19.168 17.199,18.442 C18.481,17.606 19.359,16.291 19.631,14.807 L13.047,14.807 L13.047,10.206 L24.546,10.206 C24.686,11.009 24.755,11.819 24.755,12.635 C24.755,16.267 23.428,19.345 21.128,21.424 C19.108,23.253 16.336,24.310 13.047,24.310 Z"/>
</svg>