<svg 
 xmlns="http://www.w3.org/2000/svg"
 xmlns:xlink="http://www.w3.org/1999/xlink"
 width="13px" height="13px">
<path fill-rule="evenodd"  fill="rgb(210, 210, 210)"
 d="M11.377,4.264 L8.719,1.606 L9.737,0.588 C9.737,0.588 11.548,1.234 12.395,3.246 L11.377,4.264 ZM4.140,11.501 C4.097,11.556 4.038,11.598 3.965,11.617 L0.989,12.400 C0.984,12.401 0.978,12.401 0.972,12.403 C0.960,12.405 0.949,12.407 0.937,12.408 C0.926,12.409 0.916,12.409 0.905,12.409 C0.894,12.409 0.884,12.409 0.873,12.408 C0.861,12.407 0.850,12.405 0.838,12.403 C0.832,12.401 0.826,12.401 0.821,12.400 C0.816,12.399 0.813,12.397 0.809,12.395 C0.797,12.392 0.787,12.388 0.776,12.383 C0.766,12.379 0.757,12.375 0.748,12.370 C0.738,12.365 0.729,12.359 0.720,12.353 C0.711,12.347 0.702,12.341 0.694,12.334 C0.686,12.327 0.679,12.320 0.671,12.312 C0.664,12.305 0.656,12.298 0.649,12.289 C0.643,12.281 0.636,12.272 0.631,12.263 C0.624,12.254 0.619,12.245 0.613,12.236 C0.609,12.227 0.605,12.217 0.601,12.208 C0.596,12.197 0.592,12.186 0.588,12.175 C0.587,12.171 0.585,12.167 0.584,12.163 C0.582,12.158 0.582,12.151 0.581,12.146 C0.578,12.134 0.577,12.123 0.576,12.111 C0.574,12.099 0.574,12.089 0.574,12.078 C0.574,12.068 0.575,12.057 0.576,12.047 C0.577,12.034 0.578,12.023 0.581,12.011 C0.582,12.006 0.582,12.000 0.584,11.994 L1.367,9.018 C1.386,8.946 1.428,8.887 1.482,8.844 L8.267,2.058 L10.925,4.716 L4.140,11.501 ZM1.960,9.375 L1.505,11.105 C1.604,11.091 1.709,11.121 1.786,11.198 C1.863,11.274 1.893,11.379 1.879,11.478 L3.609,11.023 L1.960,9.375 Z"/>
</svg>