<svg 
 xmlns="http://www.w3.org/2000/svg"
 xmlns:xlink="http://www.w3.org/1999/xlink"
 width="17px" height="17px">
<path fill-rule="evenodd"  fill="rgb(22, 22, 22)"
 d="M14.825,5.603 L11.380,2.158 L12.700,0.839 C12.700,0.839 15.046,1.676 16.144,4.284 L14.825,5.603 ZM5.446,14.981 C5.390,15.052 5.314,15.106 5.220,15.131 L1.364,16.146 C1.357,16.147 1.349,16.147 1.341,16.149 C1.326,16.152 1.311,16.154 1.295,16.156 C1.281,16.158 1.268,16.158 1.254,16.158 C1.240,16.158 1.227,16.158 1.212,16.156 C1.197,16.154 1.182,16.152 1.167,16.149 C1.159,16.147 1.152,16.147 1.145,16.146 C1.139,16.144 1.134,16.141 1.129,16.140 C1.115,16.135 1.100,16.130 1.087,16.124 C1.074,16.119 1.062,16.113 1.050,16.107 C1.038,16.100 1.026,16.093 1.015,16.085 C1.003,16.077 0.991,16.069 0.981,16.060 C0.970,16.052 0.961,16.042 0.951,16.032 C0.941,16.022 0.932,16.013 0.922,16.002 C0.914,15.991 0.906,15.980 0.899,15.968 C0.891,15.957 0.883,15.945 0.876,15.933 C0.870,15.922 0.865,15.909 0.859,15.897 C0.853,15.883 0.848,15.869 0.843,15.854 C0.842,15.849 0.839,15.844 0.838,15.839 C0.836,15.832 0.836,15.824 0.834,15.816 C0.831,15.802 0.829,15.786 0.827,15.771 C0.826,15.756 0.825,15.743 0.825,15.729 C0.825,15.715 0.826,15.702 0.827,15.688 C0.829,15.672 0.831,15.657 0.834,15.642 C0.836,15.635 0.836,15.627 0.838,15.620 L1.853,11.763 C1.877,11.670 1.932,11.593 2.002,11.537 L10.795,2.744 L14.239,6.188 L5.446,14.981 ZM2.622,12.225 L2.031,14.467 C2.161,14.449 2.296,14.489 2.396,14.588 C2.495,14.687 2.534,14.823 2.516,14.952 L4.758,14.362 L2.622,12.225 Z"/>
</svg>