<svg 
 xmlns="http://www.w3.org/2000/svg"
 xmlns:xlink="http://www.w3.org/1999/xlink"
 width="20px" height="12px">
<path fill-rule="evenodd"  fill="rgb(182, 182, 182)"
 d="M19.628,6.379 C19.426,6.551 14.813,11.101 9.997,11.101 C5.182,11.101 0.569,6.579 0.367,6.379 C0.252,6.236 0.165,6.064 0.165,5.893 C0.165,5.721 0.223,5.549 0.367,5.406 C0.569,5.234 5.211,0.685 9.997,0.685 C14.784,0.685 19.426,5.206 19.628,5.406 C19.743,5.549 19.830,5.721 19.830,5.893 C19.830,6.064 19.743,6.265 19.628,6.379 ZM9.997,2.058 C6.653,2.058 3.193,4.748 1.895,5.893 C3.193,7.009 6.653,9.727 9.997,9.727 C13.342,9.727 16.802,7.037 18.100,5.893 C16.802,4.777 13.342,2.058 9.997,2.058 ZM9.997,8.354 C8.642,8.354 7.518,7.266 7.518,5.893 C7.518,4.519 8.642,3.432 9.997,3.432 C11.353,3.432 12.477,4.548 12.477,5.893 C12.477,7.237 11.353,8.354 9.997,8.354 ZM9.997,4.805 C9.392,4.805 8.902,5.292 8.902,5.893 C8.902,6.494 9.392,6.980 9.997,6.980 C10.603,6.980 11.093,6.494 11.093,5.893 C11.093,5.292 10.603,4.805 9.997,4.805 Z"/>
</svg>