<svg 
 xmlns="http://www.w3.org/2000/svg"
 xmlns:xlink="http://www.w3.org/1999/xlink"
 width="4px" height="11px">
<path fill-rule="evenodd"  fill="rgb(255, 255, 255)"
 d="M2.235,10.323 L1.765,10.323 C1.212,10.323 0.764,9.875 0.764,9.323 L0.764,5.382 C0.764,4.830 1.212,4.382 1.765,4.382 L2.235,4.382 C2.787,4.382 3.235,4.830 3.235,5.382 L3.235,9.323 C3.235,9.875 2.787,10.323 2.235,10.323 ZM2.000,3.147 C1.318,3.147 0.764,2.594 0.764,1.912 C0.764,1.230 1.318,0.677 2.000,0.677 C2.682,0.677 3.235,1.230 3.235,1.912 C3.235,2.594 2.682,3.147 2.000,3.147 Z"/>
</svg>