<svg 
 xmlns="http://www.w3.org/2000/svg"
 xmlns:xlink="http://www.w3.org/1999/xlink"
 width="21px" height="21px">
<path fill-rule="evenodd"  fill="rgb(255, 255, 255)"
 d="M19.519,18.631 L18.097,20.054 C17.843,20.307 17.099,20.467 17.076,20.467 C12.574,20.505 8.239,18.736 5.053,15.548 C1.858,12.353 0.088,7.999 0.138,3.481 C0.138,3.478 0.301,2.755 0.554,2.503 L1.976,1.079 C2.498,0.558 3.497,0.322 4.197,0.555 L4.497,0.656 C5.197,0.889 5.929,1.662 6.123,2.374 L6.839,5.003 C7.033,5.716 6.772,6.730 6.251,7.251 L5.300,8.203 C6.233,11.661 8.943,14.372 12.397,15.306 L13.348,14.354 C13.869,13.833 14.886,13.572 15.598,13.766 L18.226,14.484 C18.936,14.677 19.709,15.408 19.943,16.109 L20.043,16.409 C20.276,17.110 20.040,18.110 19.519,18.631 Z"/>
</svg>