<svg 
 xmlns="http://www.w3.org/2000/svg"
 xmlns:xlink="http://www.w3.org/1999/xlink"
 width="18px" height="18px">
<path fill-rule="evenodd"  fill="rgb(22, 22, 22)"
 d="M10.225,8.887 L16.714,15.376 C17.085,15.748 17.085,16.350 16.714,16.721 C16.342,17.093 15.740,17.093 15.369,16.721 L8.897,10.250 L2.510,16.807 C2.142,17.182 1.546,17.182 1.179,16.807 C0.811,16.432 0.811,15.824 1.179,15.449 L7.552,8.904 L0.598,1.951 L1.107,1.442 C1.569,0.980 2.317,0.980 2.779,1.442 L8.879,7.542 L15.091,1.162 C15.459,0.786 16.055,0.786 16.423,1.162 L17.088,1.841 L10.225,8.887 Z"/>
</svg>