<svg 
 xmlns="http://www.w3.org/2000/svg"
 xmlns:xlink="http://www.w3.org/1999/xlink"
 width="15px" height="17px">
<path fill-rule="evenodd"  opacity="0.502" fill="rgb(214, 78, 84)"
 d="M7.296,0.413 C3.508,0.413 0.437,3.359 0.437,6.992 C0.437,11.433 6.482,16.450 6.739,16.664 C7.060,16.927 7.533,16.927 7.854,16.664 C8.154,16.450 14.156,11.433 14.156,6.992 C14.156,3.359 11.085,0.413 7.296,0.413 ZM7.296,14.929 C5.470,13.284 2.152,9.739 2.152,6.992 C2.152,4.267 4.455,2.058 7.296,2.058 C10.138,2.058 12.441,4.267 12.441,6.992 C12.441,9.739 9.123,13.292 7.296,14.929 ZM7.296,3.703 C5.402,3.703 3.866,5.176 3.866,6.992 C3.866,8.809 5.402,10.282 7.296,10.282 C9.191,10.282 10.726,8.809 10.726,6.992 C10.726,5.176 9.191,3.703 7.296,3.703 ZM7.296,8.637 C6.349,8.637 5.582,7.901 5.582,6.992 C5.582,6.084 6.349,5.348 7.296,5.348 C8.244,5.348 9.011,6.084 9.011,6.992 C9.011,7.901 8.244,8.637 7.296,8.637 Z"/>
</svg>