<svg 
 xmlns="http://www.w3.org/2000/svg"
 xmlns:xlink="http://www.w3.org/1999/xlink"
 width="121px" height="44px">
<path fill-rule="evenodd"  fill="rgb(204, 34, 41)"
 d="M117.161,27.546 C114.847,29.724 111.846,30.814 108.154,30.814 C104.551,30.814 101.581,29.727 99.243,27.556 C96.906,25.385 95.738,22.556 95.738,19.069 C95.738,15.583 96.891,12.745 99.196,10.554 C101.502,8.364 104.488,7.269 108.154,7.269 C111.846,7.269 114.847,8.364 117.161,10.554 C119.473,12.745 120.629,15.583 120.629,19.069 C120.629,22.543 119.473,25.370 117.161,27.546 ZM110.025,16.955 C109.547,16.476 108.923,16.237 108.154,16.237 C107.399,16.237 106.784,16.480 106.312,16.964 C105.840,17.449 105.602,18.076 105.602,18.843 C105.602,19.610 105.840,20.234 106.312,20.712 C106.784,21.191 107.399,21.430 108.154,21.430 C108.923,21.430 109.547,21.191 110.025,20.712 C110.504,20.234 110.744,19.610 110.744,18.843 C110.744,18.063 110.504,17.433 110.025,16.955 ZM86.364,30.662 C83.555,30.662 81.189,29.826 79.267,28.151 C77.345,26.477 76.385,24.174 76.385,21.241 L76.385,14.123 L71.622,14.123 L88.065,1.246 L88.065,7.741 L92.941,7.741 L92.941,14.123 L88.065,14.123 L88.065,18.994 C88.065,20.643 88.803,21.467 90.276,21.467 C91.360,21.467 92.292,20.926 93.073,19.844 L93.073,28.850 C91.233,30.058 88.997,30.662 86.364,30.662 ZM58.525,30.814 C54.922,30.814 51.952,29.727 49.614,27.556 C47.277,25.385 46.109,22.556 46.109,19.069 C46.109,15.583 47.262,12.745 49.567,10.554 C51.873,8.364 54.859,7.269 58.525,7.269 C62.217,7.269 65.218,8.364 67.532,10.554 C69.843,12.745 70.999,15.583 70.999,19.069 C70.999,22.543 69.843,25.370 67.532,27.546 C65.218,29.724 62.217,30.814 58.525,30.814 ZM60.396,16.955 C59.918,16.476 59.294,16.237 58.525,16.237 C57.770,16.237 57.155,16.480 56.683,16.964 C56.210,17.449 55.974,18.076 55.974,18.843 C55.974,19.610 56.210,20.234 56.683,20.712 C57.155,21.191 57.770,21.430 58.525,21.430 C59.294,21.430 59.918,21.191 60.396,20.712 C60.875,20.234 61.114,19.610 61.114,18.843 C61.114,18.063 60.875,17.433 60.396,16.955 ZM43.684,39.504 L42.341,43.223 L41.649,43.223 L40.272,39.504 L40.272,43.223 L39.472,43.223 L39.472,38.399 L40.659,38.399 L42.008,42.173 L43.310,38.399 L44.491,38.399 L44.491,43.223 L43.684,43.223 L43.684,39.504 ZM39.809,7.269 C38.902,7.269 38.121,6.941 37.466,6.287 C36.810,5.633 36.483,4.852 36.483,3.946 C36.483,3.040 36.810,2.265 37.466,1.624 C38.121,0.981 38.902,0.661 39.809,0.661 C40.716,0.661 41.491,0.981 42.134,1.624 C42.776,2.265 43.098,3.040 43.098,3.946 C43.098,4.852 42.776,5.633 42.134,6.287 C41.491,6.941 40.716,7.269 39.809,7.269 ZM42.423,7.741 L42.423,30.473 L30.743,30.473 L30.743,7.741 C32.281,8.609 34.277,9.044 36.735,9.044 C39.014,9.044 40.911,8.609 42.423,7.741 ZM27.086,22.572 C27.483,23.686 27.741,24.807 27.861,25.932 C27.980,27.059 28.040,28.573 28.040,30.473 L16.474,30.473 C16.474,26.975 16.118,24.388 15.406,22.713 C14.694,21.039 13.576,19.901 12.051,19.296 L12.051,30.473 L0.371,30.473 L0.371,1.661 L12.051,1.661 L12.051,15.274 C14.923,14.205 16.398,11.693 16.474,7.741 L28.040,7.741 C27.825,10.070 27.360,11.951 26.642,13.386 C25.923,14.821 24.789,16.099 23.240,17.219 C24.147,17.924 24.916,18.714 25.546,19.589 C26.176,20.464 26.689,21.458 27.086,22.572 ZM34.705,40.984 L0.371,40.984 L0.371,39.934 L34.705,39.934 L34.705,40.984 ZM47.841,43.223 L46.986,43.223 L46.986,38.399 L47.841,38.399 L47.841,43.223 ZM49.916,38.399 L50.926,38.399 L52.025,40.106 L53.171,38.399 L54.121,38.399 L52.520,40.723 L54.236,43.223 L53.205,43.223 L51.998,41.380 L50.770,43.223 L49.794,43.223 L51.516,40.723 L49.916,38.399 ZM60.414,38.640 C60.767,38.408 61.180,38.291 61.655,38.291 C62.166,38.291 62.611,38.432 62.991,38.715 C63.371,38.997 63.599,39.404 63.676,39.937 L62.835,39.937 C62.776,39.648 62.640,39.421 62.428,39.256 C62.215,39.092 61.953,39.009 61.642,39.009 C61.320,39.009 61.048,39.100 60.824,39.280 C60.600,39.460 60.442,39.683 60.349,39.948 C60.257,40.212 60.210,40.499 60.210,40.811 C60.210,41.046 60.238,41.267 60.292,41.475 C60.346,41.683 60.428,41.874 60.536,42.048 C60.644,42.222 60.793,42.360 60.980,42.464 C61.168,42.568 61.386,42.620 61.635,42.620 C62.353,42.620 62.765,42.209 62.869,41.387 L63.717,41.387 C63.671,41.979 63.460,42.452 63.083,42.806 C62.705,43.161 62.215,43.338 61.614,43.338 C60.932,43.338 60.384,43.108 59.973,42.647 C59.562,42.186 59.356,41.575 59.356,40.811 C59.356,40.351 59.444,39.932 59.621,39.555 C59.797,39.178 60.061,38.872 60.414,38.640 ZM68.159,38.392 L70.023,43.223 L69.115,43.223 L68.654,41.943 L66.741,41.943 L66.266,43.223 L65.392,43.223 L67.257,38.392 L68.159,38.392 ZM68.430,41.306 L67.711,39.273 L66.958,41.306 L68.430,41.306 ZM75.299,39.118 L72.811,39.118 L72.811,40.432 L74.994,40.432 L74.994,41.116 L72.811,41.116 L72.811,43.223 L71.956,43.223 L71.956,38.399 L75.299,38.399 L75.299,39.118 ZM80.928,39.111 L78.290,39.111 L78.290,40.391 L80.738,40.391 L80.738,41.075 L78.290,41.075 L78.290,42.498 L80.969,42.498 L80.969,43.223 L77.449,43.223 L77.449,38.399 L80.928,38.399 L80.928,39.111 ZM120.250,40.984 L85.916,40.984 L85.916,39.934 L120.250,39.934 L120.250,40.984 Z"/>
</svg>