<svg 
 xmlns="http://www.w3.org/2000/svg"
 xmlns:xlink="http://www.w3.org/1999/xlink"
 width="7px" height="6px">
<path fill-rule="evenodd"  fill="rgb(77, 77, 77)"
 d="M6.137,0.572 L3.701,3.009 L6.112,5.421 C6.224,5.532 6.224,5.713 6.112,5.825 C6.001,5.936 5.820,5.936 5.709,5.825 L3.297,3.413 L0.885,5.825 C0.773,5.936 0.592,5.936 0.481,5.825 C0.369,5.713 0.369,5.532 0.481,5.421 L2.892,3.009 L0.455,0.572 C0.344,0.460 0.344,0.279 0.455,0.168 C0.567,0.056 0.748,0.056 0.860,0.168 L3.297,2.605 L5.733,0.168 C5.845,0.056 6.026,0.056 6.137,0.168 C6.249,0.279 6.249,0.460 6.137,0.572 Z"/>
</svg>