<svg 
 xmlns="http://www.w3.org/2000/svg"
 xmlns:xlink="http://www.w3.org/1999/xlink"
 width="8px" height="7px">
<path fill-rule="evenodd"  fill="rgb(137, 137, 137)"
 d="M5.000,7.000 L3.000,7.000 L3.000,6.166 L5.000,6.166 C6.104,6.166 7.000,5.420 7.000,4.500 C7.000,3.579 6.104,2.833 5.000,2.833 L2.480,2.833 C2.424,2.862 2.375,2.904 2.308,2.904 C2.242,2.904 2.193,2.862 2.137,2.833 L1.671,2.833 C1.615,2.862 1.567,2.904 1.500,2.904 C1.433,2.904 1.384,2.862 1.328,2.833 L1.000,2.833 L1.000,2.730 C0.926,2.830 0.824,2.904 0.691,2.904 C0.467,2.904 0.286,2.723 0.286,2.500 C0.286,2.276 0.467,2.095 0.691,2.095 C0.824,2.095 0.926,2.169 1.000,2.269 L1.000,1.999 L1.269,1.999 C1.169,1.926 1.095,1.824 1.095,1.691 C1.095,1.468 1.276,1.286 1.500,1.286 C1.723,1.286 1.904,1.468 1.904,1.691 C1.904,1.824 1.830,1.926 1.731,1.999 L2.078,1.999 C1.978,1.926 1.904,1.824 1.904,1.691 C1.904,1.468 2.085,1.286 2.308,1.286 C2.532,1.286 2.713,1.468 2.713,1.691 C2.713,1.824 2.639,1.926 2.539,1.999 L5.000,1.999 C6.656,1.999 8.000,3.119 8.000,4.500 C8.000,5.880 6.656,7.000 5.000,7.000 ZM1.904,3.308 C1.904,3.532 1.723,3.713 1.500,3.713 C1.276,3.713 1.095,3.532 1.095,3.308 C1.095,3.085 1.276,2.904 1.500,2.904 C1.723,2.904 1.904,3.085 1.904,3.308 ZM2.308,2.904 C2.532,2.904 2.713,3.085 2.713,3.308 C2.713,3.532 2.532,3.713 2.308,3.713 C2.085,3.713 1.904,3.532 1.904,3.308 C1.904,3.085 2.085,2.904 2.308,2.904 ZM2.713,4.117 C2.713,4.341 2.532,4.521 2.308,4.521 C2.085,4.521 1.904,4.341 1.904,4.117 C1.904,3.894 2.085,3.713 2.308,3.713 C2.532,3.713 2.713,3.894 2.713,4.117 ZM1.904,0.882 C1.904,0.658 2.085,0.477 2.308,0.477 C2.532,0.477 2.713,0.658 2.713,0.882 C2.713,1.105 2.532,1.286 2.308,1.286 C2.085,1.286 1.904,1.105 1.904,0.882 Z"/>
</svg>