<svg 
 xmlns="http://www.w3.org/2000/svg"
 xmlns:xlink="http://www.w3.org/1999/xlink"
 width="18px" height="18px">
<path fill-rule="evenodd"  fill="rgb(214, 78, 84)"
 d="M9.324,17.334 C4.663,17.334 0.885,13.555 0.885,8.895 C0.885,4.235 4.663,0.457 9.324,0.457 C13.985,0.457 17.762,4.235 17.762,8.895 C17.762,13.555 13.985,17.334 9.324,17.334 ZM9.324,2.144 C5.595,2.144 2.573,5.167 2.573,8.895 C2.573,12.623 5.595,15.646 9.324,15.646 C13.052,15.646 16.075,12.623 16.075,8.895 C16.075,5.167 13.052,2.144 9.324,2.144 ZM10.168,10.583 L6.792,10.583 C6.326,10.583 5.948,10.205 5.948,9.739 C5.948,9.273 6.326,8.895 6.792,8.895 L9.324,8.895 L9.324,6.363 C9.324,5.897 9.701,5.520 10.168,5.520 C10.634,5.520 11.011,5.897 11.011,6.363 L11.011,9.739 C11.011,10.205 10.634,10.583 10.168,10.583 Z"/>
</svg>