<svg 
 xmlns="http://www.w3.org/2000/svg"
 xmlns:xlink="http://www.w3.org/1999/xlink"
 width="20px" height="16px">
<path fill-rule="evenodd"  fill="rgb(182, 182, 182)"
 d="M19.628,8.379 C19.426,8.551 14.813,13.101 9.997,13.101 C9.573,13.101 9.152,13.055 8.734,12.991 L7.149,15.736 C7.011,15.975 6.705,16.057 6.466,15.919 L6.033,15.669 C5.794,15.531 5.712,15.225 5.850,14.986 L7.207,12.637 C3.536,11.482 0.529,8.540 0.367,8.379 C0.252,8.236 0.165,8.064 0.165,7.893 C0.165,7.721 0.223,7.549 0.367,7.406 C0.569,7.234 5.211,2.685 9.997,2.685 C10.914,2.685 11.825,2.852 12.700,3.122 L14.350,0.264 C14.488,0.025 14.794,-0.057 15.033,0.081 L15.466,0.331 C15.706,0.469 15.787,0.775 15.649,1.014 L14.122,3.659 C17.154,5.000 19.486,7.265 19.628,7.406 C19.743,7.549 19.830,7.721 19.830,7.893 C19.830,8.064 19.743,8.265 19.628,8.379 ZM9.997,4.058 C6.653,4.058 3.193,6.748 1.895,7.893 C2.923,8.777 5.313,10.648 7.924,11.395 L8.731,9.998 C8.010,9.570 7.518,8.797 7.518,7.893 C7.518,6.519 8.642,5.432 9.997,5.432 C10.427,5.432 10.828,5.554 11.183,5.750 L11.981,4.367 C11.326,4.187 10.661,4.058 9.997,4.058 ZM9.424,8.796 L10.496,6.939 C10.345,6.860 10.180,6.805 9.997,6.805 C9.392,6.805 8.902,7.292 8.902,7.893 C8.902,8.280 9.117,8.604 9.424,8.796 ZM13.422,4.871 L12.254,6.894 C12.395,7.201 12.477,7.538 12.477,7.893 C12.477,9.144 11.500,10.185 10.273,10.325 L9.492,11.679 C9.660,11.692 9.829,11.727 9.997,11.727 C13.342,11.727 16.802,9.037 18.100,7.893 C17.253,7.164 15.479,5.763 13.422,4.871 Z"/>
</svg>