<svg 
 xmlns="http://www.w3.org/2000/svg"
 xmlns:xlink="http://www.w3.org/1999/xlink"
 width="226px" height="29px">
<path fill-rule="evenodd"  fill="rgb(214, 78, 84)"
 d="M29.541,11.594 C29.688,10.870 29.103,10.001 28.372,10.001 L20.038,8.843 L16.236,1.314 C16.090,1.024 15.943,0.879 15.651,0.735 C14.920,0.300 14.043,0.590 13.604,1.314 L9.949,8.843 L1.615,10.001 C1.176,10.001 0.884,10.146 0.737,10.435 C0.153,11.014 0.153,11.883 0.737,12.462 L6.732,18.254 L5.270,26.506 C5.270,26.796 5.270,27.085 5.416,27.375 C5.855,28.099 6.732,28.389 7.463,27.954 L14.920,24.045 L22.377,27.954 C22.523,28.099 22.816,28.099 23.108,28.099 L23.108,28.099 C23.254,28.099 23.254,28.099 23.400,28.099 C24.131,27.954 24.716,27.230 24.570,26.362 L23.108,18.109 L29.103,12.317 C29.395,12.173 29.541,11.883 29.541,11.594 Z"/>
<path fill-rule="evenodd"  fill="rgb(214, 78, 84)"
 d="M78.541,11.594 C78.688,10.870 78.103,10.001 77.372,10.001 L69.037,8.843 L65.236,1.314 C65.090,1.024 64.944,0.879 64.651,0.735 C63.920,0.300 63.043,0.590 62.604,1.314 L58.949,8.843 L50.615,10.001 C50.176,10.001 49.883,10.146 49.737,10.435 C49.152,11.014 49.152,11.883 49.737,12.462 L55.732,18.254 L54.270,26.506 C54.270,26.796 54.270,27.085 54.416,27.375 C54.855,28.099 55.732,28.389 56.463,27.954 L63.920,24.045 L71.377,27.954 C71.523,28.099 71.816,28.099 72.108,28.099 L72.108,28.099 C72.254,28.099 72.254,28.099 72.400,28.099 C73.131,27.954 73.717,27.230 73.570,26.362 L72.108,18.109 L78.103,12.317 C78.395,12.173 78.541,11.883 78.541,11.594 Z"/>
<path fill-rule="evenodd"  fill="rgb(214, 78, 84)"
 d="M127.541,11.594 C127.688,10.870 127.103,10.001 126.372,10.001 L118.038,8.843 L114.236,1.314 C114.090,1.024 113.944,0.879 113.651,0.735 C112.920,0.300 112.043,0.590 111.604,1.314 L107.949,8.843 L99.615,10.001 C99.176,10.001 98.884,10.146 98.737,10.435 C98.152,11.014 98.152,11.883 98.737,12.462 L104.732,18.254 L103.270,26.506 C103.270,26.796 103.270,27.085 103.416,27.375 C103.855,28.099 104.732,28.389 105.463,27.954 L112.920,24.045 L120.377,27.954 C120.523,28.099 120.815,28.099 121.108,28.099 L121.108,28.099 C121.254,28.099 121.254,28.099 121.400,28.099 C122.132,27.954 122.716,27.230 122.570,26.362 L121.108,18.109 L127.103,12.317 C127.395,12.173 127.541,11.883 127.541,11.594 Z"/>
<path fill-rule="evenodd"  fill="rgb(214, 78, 84)"
 d="M176.542,11.594 C176.688,10.870 176.103,10.001 175.372,10.001 L167.037,8.843 L163.236,1.314 C163.090,1.024 162.944,0.879 162.651,0.735 C161.920,0.300 161.043,0.590 160.604,1.314 L156.949,8.843 L148.615,10.001 C148.176,10.001 147.884,10.146 147.737,10.435 C147.153,11.014 147.153,11.883 147.737,12.462 L153.732,18.254 L152.270,26.506 C152.270,26.796 152.270,27.085 152.416,27.375 C152.855,28.099 153.732,28.389 154.463,27.954 L161.920,24.045 L169.377,27.954 C169.523,28.099 169.816,28.099 170.108,28.099 L170.108,28.099 C170.254,28.099 170.254,28.099 170.400,28.099 C171.132,27.954 171.717,27.230 171.570,26.362 L170.108,18.109 L176.103,12.317 C176.395,12.173 176.542,11.883 176.542,11.594 Z"/>
<path fill-rule="evenodd"  fill="rgb(214, 78, 84)"
 d="M225.541,11.594 C225.688,10.870 225.103,10.001 224.372,10.001 L216.037,8.843 L212.236,1.314 C212.090,1.024 211.944,0.879 211.651,0.735 C210.920,0.300 210.043,0.590 209.604,1.314 L205.949,8.843 L197.614,10.001 C197.176,10.001 196.884,10.146 196.738,10.435 C196.153,11.014 196.153,11.883 196.738,12.462 L202.732,18.254 L201.270,26.506 C201.270,26.796 201.270,27.085 201.416,27.375 C201.855,28.099 202.732,28.389 203.463,27.954 L210.920,24.045 L218.377,27.954 C218.523,28.099 218.816,28.099 219.108,28.099 L219.108,28.099 C219.254,28.099 219.254,28.099 219.401,28.099 C220.132,27.954 220.716,27.230 220.570,26.362 L219.108,18.109 L225.103,12.317 C225.395,12.173 225.541,11.883 225.541,11.594 Z"/>
</svg>