<svg 
 xmlns="http://www.w3.org/2000/svg"
 xmlns:xlink="http://www.w3.org/1999/xlink"
 width="30px" height="29px">
<path fill-rule="evenodd"  fill="rgb(214, 78, 84)"
 d="M29.541,11.594 C29.687,10.870 29.103,10.001 28.372,10.001 L20.038,8.843 L16.236,1.314 C16.090,1.024 15.944,0.879 15.652,0.735 C14.920,0.300 14.043,0.590 13.604,1.314 L9.949,8.843 L1.615,10.001 C1.176,10.001 0.884,10.146 0.737,10.435 C0.153,11.014 0.153,11.883 0.737,12.462 L6.732,18.254 L5.270,26.507 C5.270,26.796 5.270,27.085 5.416,27.375 C5.855,28.099 6.732,28.389 7.463,27.954 L14.920,24.045 L22.377,27.954 C22.523,28.099 22.816,28.099 23.108,28.099 L23.108,28.099 C23.254,28.099 23.254,28.099 23.400,28.099 C24.131,27.954 24.717,27.230 24.570,26.362 L23.108,18.109 L29.103,12.317 C29.395,12.173 29.541,11.883 29.541,11.594 Z"/>
</svg>