<svg 
 xmlns="http://www.w3.org/2000/svg"
 xmlns:xlink="http://www.w3.org/1999/xlink"
 width="26px" height="22px">
<path fill-rule="evenodd"  fill="rgb(250, 250, 250)"
 d="M25.896,10.355 C25.849,10.476 25.777,10.586 25.686,10.679 L21.692,14.612 C21.301,14.997 20.666,14.997 20.274,14.612 C19.883,14.226 19.883,13.601 20.274,13.216 L22.571,10.964 L13.992,10.964 C13.440,10.964 12.993,10.524 12.993,9.981 C12.993,9.438 13.440,8.998 13.992,8.998 L22.571,8.998 L20.274,6.747 C20.272,6.745 20.270,6.743 20.269,6.741 C19.880,6.356 19.883,5.733 20.274,5.351 C20.276,5.349 20.278,5.347 20.280,5.345 C20.672,4.963 21.304,4.966 21.692,5.351 L25.686,9.283 C25.777,9.377 25.849,9.487 25.896,9.608 C25.996,9.847 25.996,10.116 25.896,10.355 ZM16.000,4.000 C16.000,2.895 15.104,2.000 14.000,2.000 L9.000,2.000 C10.104,2.000 11.000,2.895 11.000,4.000 L11.000,18.000 L14.000,18.000 C15.104,18.000 16.000,17.104 16.000,16.000 L16.000,14.000 L18.000,14.000 L18.000,18.000 C18.000,19.104 17.104,20.000 16.000,20.000 L11.000,20.000 C11.000,21.104 10.104,22.000 9.000,22.000 L2.000,20.000 C1.816,20.000 1.641,19.967 1.471,19.920 C1.334,19.883 1.204,19.831 1.080,19.766 C0.912,19.678 0.755,19.572 0.619,19.441 C0.608,19.432 0.596,19.424 0.585,19.414 C0.564,19.393 0.549,19.367 0.528,19.345 C0.433,19.241 0.351,19.127 0.280,19.004 C0.106,18.708 -0.000,18.368 -0.000,18.000 L-0.000,2.000 C-0.000,0.895 0.895,-0.000 2.000,-0.000 L2.000,-0.000 L16.000,-0.000 C17.104,-0.000 18.000,0.895 18.000,2.000 L18.000,6.000 L16.000,6.000 L16.000,4.000 Z"/>
</svg>